# xmcd CD database file
#
# Track frame offsets:
#	150
#	17605
#	32492
#	45480
#	66915
#	80520
#	101762
#	123877
#	143807
#	159700
#	181647
#
# Disc length: 2693 seconds
#
# Revision: 0
# Processed by: cddbd v1.5.2PL0 Copyright (c) Steve Scherf et al.
# Submitted via: CDex 1.70beta2
#
DISCID=840a830b
DTITLE=Talley,James - American Originals
DYEAR=1885
DGENRE=Country
TTITLE0=Find Somebody And Love Them
TTITLE1=Bury Me In New Orleans
TTITLE2=Baby, She Loves A Rocker
TTITLE3=Whiskey On The Side
TTITLE4=Are They Gonna Make Us Outlaws Again
TTITLE5=A Way To Say I Love You
TTITLE6=New York Town
TTITLE7=Open All Night
TTITLE8=Montana Song
TTITLE9=Ready To Please
TTITLE10=We´re All One Family (All Over The World)
EXTD=YEAR: 1885
EXTT0=
EXTT1=
EXTT2=
EXTT3=
EXTT4=
EXTT5=
EXTT6=
EXTT7=
EXTT8=
EXTT9=
EXTT10=
PLAYORDER=
